<svg width="13" height="13" viewBox="0 0 13 13" fill="none" xmlns="http://www.w3.org/2000/svg">
<path d="M11.0442 0.511732C10.7575 0.212721 10.2928 0.212721 10.0061 0.511732L6.54604 4.12112C6.45049 4.22079 6.29557 4.22079 6.20003 4.12112L2.73992 0.511732C2.45327 0.212721 1.98853 0.212721 1.70189 0.511732L1.00987 1.23361C0.723222 1.53262 0.723222 2.01741 1.00987 2.31642L4.46997 5.92581C4.56552 6.02548 4.56552 6.18708 4.46997 6.28675L1.00987 9.89613C0.723222 10.1951 0.723222 10.6799 1.00987 10.9789L1.70189 11.7008C1.98853 11.9998 2.45328 11.9998 2.73992 11.7008L6.20003 8.09144C6.29557 7.99177 6.45049 7.99177 6.54604 8.09144L10.0061 11.7008C10.2928 11.9998 10.7575 11.9998 11.0442 11.7008L11.7362 10.9789C12.0228 10.6799 12.0228 10.1951 11.7362 9.89613L8.27609 6.28675C8.18054 6.18708 8.18054 6.02548 8.27609 5.92581L11.7362 2.31642C12.0228 2.01741 12.0228 1.53262 11.7362 1.23361L11.0442 0.511732Z" fill="#323751" stroke="#323751" stroke-width="0.5"/>
</svg>
