<svg width="19" height="19" viewBox="0 0 19 19" fill="none" xmlns="http://www.w3.org/2000/svg">
<path d="M14.6203 0.390625H4.76834C2.51833 0.390625 0.694336 2.22219 0.694336 4.48153V14.2997C0.694336 16.5591 2.51833 18.3906 4.76834 18.3906H14.6203C16.8703 18.3906 18.6943 16.5591 18.6943 14.2997V4.48153C18.6943 2.22219 16.8703 0.390625 14.6203 0.390625Z" fill="#5F82A6"/>
<path d="M9.67371 12.8255C11.5969 12.8255 13.156 11.26 13.156 9.32878C13.156 7.39758 11.5969 5.83203 9.67371 5.83203C7.75049 5.83203 6.19141 7.39758 6.19141 9.32878C6.19141 11.26 7.75049 12.8255 9.67371 12.8255Z" fill="#333750"/>
<path d="M9.77235 14.7103C12.7322 14.7103 15.1316 12.3009 15.1316 9.32876C15.1316 6.35664 12.7322 3.94727 9.77235 3.94727C6.81251 3.94727 4.41309 6.35664 4.41309 9.32876C4.41309 12.3009 6.81251 14.7103 9.77235 14.7103Z" stroke="white" stroke-width="1.29334" stroke-linecap="round" stroke-linejoin="round"/>
<path d="M7.87695 8.32031L9.79917 10.2505L16.0783 3.94531" stroke="white" stroke-width="1.29334" stroke-linecap="round" stroke-linejoin="round"/>
</svg>
