<svg width="49" height="44" viewBox="0 0 49 44" fill="none" xmlns="http://www.w3.org/2000/svg">
<path d="M0.594525 19.0268C0.440235 19.0268 0.285945 18.9679 0.167261 18.8461C-0.0621963 18.6105 -0.054284 18.2414 0.183085 18.0137L4.83552 13.541C5.06893 13.3133 5.44477 13.3211 5.67422 13.5567C5.90368 13.7923 5.89577 14.1615 5.6584 14.3892L1.00596 18.8619C0.891236 18.9718 0.744859 19.0268 0.594525 19.0268Z" fill="#5F82A6"/>
<path d="M47.4036 19.025C47.273 19.025 47.1425 18.9818 47.0317 18.8954L26.3252 2.37532C25.0632 1.37006 22.2662 1.70384 21.02 2.69732C20.7668 2.90152 20.391 2.86225 20.1852 2.60701C19.9795 2.35176 20.0191 1.98264 20.2762 1.77845C21.9062 0.47867 25.2966 0.0467203 27.065 1.45645L47.7715 17.9766C48.0286 18.1808 48.0682 18.5499 47.8625 18.8051C47.7517 18.9504 47.5776 19.025 47.4036 19.025Z" fill="#5F82A6"/>
<path d="M25.9533 29.4711C25.8544 29.4711 25.7555 29.4476 25.6645 29.3965L7.15762 19.2261C4.72854 17.891 3.84632 14.8398 5.19141 12.4287L10.6865 2.57636C12.0316 0.165293 15.1055 -0.710388 17.5346 0.624731L38.6723 12.2403C41.1014 13.5754 41.9836 16.6265 40.6385 19.0376L37.9879 23.793C37.8297 24.0757 37.4697 24.1817 37.1809 24.0246C36.896 23.8676 36.7892 23.5102 36.9474 23.2236L39.5981 18.4682C40.6267 16.6226 39.9502 14.294 38.0947 13.273L16.961 1.65748C15.1016 0.636511 12.7556 1.308 11.727 3.14967L6.23188 13.0021C5.20328 14.8477 5.87978 17.1763 7.73521 18.1972L26.2421 28.3677C26.5269 28.5248 26.6338 28.8821 26.4755 29.1688C26.3647 29.3651 26.163 29.4711 25.9533 29.4711Z" fill="#333750"/>
<path d="M16.8027 14.5615C16.4902 14.5615 16.1855 14.483 15.9047 14.3298L11.6478 11.9894C10.7498 11.4947 10.4254 10.3716 10.9239 9.48019L12.2571 7.08876C12.7516 6.19737 13.887 5.87537 14.7851 6.36623L19.0419 8.70661C19.4771 8.94615 19.7896 9.33883 19.9281 9.81005C20.0665 10.2852 20.0072 10.7839 19.7659 11.2119L18.4326 13.6034C18.1913 14.0353 17.7957 14.3455 17.317 14.483C17.1508 14.534 16.9768 14.5615 16.8027 14.5615ZM13.8831 7.31259C13.6457 7.31259 13.4162 7.43825 13.2936 7.65815L11.9604 10.0496C11.7823 10.3716 11.8971 10.78 12.2215 10.9567L16.4783 13.2971C16.6365 13.3835 16.8185 13.4031 16.9886 13.356C17.1627 13.3049 17.3051 13.195 17.3922 13.0379L18.7254 10.6465C18.8124 10.4894 18.8322 10.3088 18.7847 10.1399C18.7333 9.96712 18.6225 9.82575 18.4643 9.73936L14.2075 7.39898C14.1046 7.34008 13.9938 7.31259 13.8831 7.31259Z" fill="#333750"/>
<path d="M17.7005 12.2309C17.6016 12.2309 17.5027 12.2073 17.4117 12.1563L16.3673 11.5829C16.0825 11.4259 15.9757 11.0685 16.1339 10.7819C16.2922 10.4952 16.6522 10.3931 16.941 10.5502L17.9854 11.1235C18.2702 11.2806 18.377 11.6379 18.2188 11.9246C18.112 12.1209 17.9102 12.2309 17.7005 12.2309Z" fill="#333750"/>
<path d="M13.3651 11.7958C13.2662 11.7958 13.1673 11.7722 13.0763 11.7212C12.7915 11.5641 12.6846 11.2068 12.8429 10.9201L13.4205 9.88343C13.5787 9.59677 13.9387 9.49467 14.2275 9.65175C14.5124 9.80882 14.6192 10.1662 14.461 10.4528L13.8834 11.4895C13.7765 11.6858 13.5748 11.7958 13.3651 11.7958Z" fill="#333750"/>
<path d="M30.6099 26.7269C30.511 26.7269 30.4121 26.7033 30.3211 26.6523L8.94203 14.9032C8.65718 14.7462 8.55037 14.3888 8.70861 14.1022C8.86686 13.8155 9.22687 13.7134 9.51567 13.8705L30.8987 25.6235C31.1835 25.7805 31.2903 26.1379 31.1321 26.4245C31.0213 26.617 30.8195 26.7269 30.6099 26.7269Z" fill="#333750"/>
<path d="M33.7192 17.4951C33.6203 17.4951 33.5214 17.4716 33.4304 17.4205L27.4249 14.122C27.1401 13.9649 27.0333 13.6076 27.1915 13.3209C27.3498 13.0343 27.7098 12.9322 27.9986 13.0892L34.004 16.3878C34.2889 16.5448 34.3957 16.9022 34.2374 17.1888C34.1306 17.3852 33.9289 17.4951 33.7192 17.4951Z" fill="#333750"/>
<path d="M40.8087 44.0003L7.18931 44.0003C3.22524 44.0003 0.000976563 40.796 0.000976563 36.8535L0.000976563 18.4367C0.000976563 18.1108 0.266039 17.8477 0.594399 17.8477C0.92276 17.8477 1.18782 18.1108 1.18782 18.4367L1.18782 36.8535C1.18782 40.1441 3.88196 42.8222 7.18931 42.8222L40.8087 42.8222C44.12 42.8222 46.8102 40.1441 46.8102 36.8535V18.4367C46.8102 18.1108 47.0752 17.8477 47.4036 17.8477C47.732 17.8477 47.997 18.1108 47.997 18.4367V36.8535C48.001 40.796 44.7728 44.0003 40.8087 44.0003Z" fill="#5F82A6"/>
<path d="M24.4499 29.8127C23.5874 29.8127 22.721 29.632 21.9179 29.2708L0.966147 19.87C0.669436 19.7365 0.534926 19.387 0.669436 19.0925C0.803945 18.798 1.15604 18.6644 1.45671 18.798L22.4085 28.1988C23.7061 28.7799 25.1936 28.7799 26.4952 28.1988L47.1621 18.9236C47.4628 18.7901 47.8109 18.9197 47.9494 19.2181C48.0879 19.5166 47.9534 19.8621 47.6527 19.9956L26.9818 29.2708C26.1787 29.632 25.3123 29.8127 24.4499 29.8127Z" fill="#5F82A6"/>
<path d="M19.8092 37.553H6.92008C6.59172 37.553 6.32666 37.29 6.32666 36.964C6.32666 36.6381 6.59172 36.375 6.92008 36.375H19.8092C20.1376 36.375 20.4027 36.6381 20.4027 36.964C20.4027 37.29 20.1376 37.553 19.8092 37.553Z" fill="#5F82A6"/>
</svg>
