<svg width="38" height="48" viewBox="0 0 38 48" fill="none" xmlns="http://www.w3.org/2000/svg">
<g clip-path="url(#clip0)">
<path d="M15.9209 3.92169H24.9611C27.0065 3.92169 28.6723 2.61791 28.6723 1.01495C28.6723 0.708398 28.4254 0.460938 28.1195 0.460938C27.8136 0.460938 27.5667 0.708398 27.5667 1.01495C27.5667 1.99002 26.3727 2.81366 24.9611 2.81366H15.9209C14.5094 2.81366 13.3153 1.99002 13.3153 1.01495C13.3153 0.708398 13.0684 0.460938 12.7625 0.460938C12.4566 0.460938 12.2097 0.708398 12.2097 1.01495C12.2097 2.61791 13.8718 3.92169 15.9209 3.92169Z" fill="#5F82A6"/>
<path d="M12.8362 48.0004H28.0457C31.2815 48.0004 33.9165 45.3633 33.9165 42.1204C33.9165 41.8139 33.6696 41.5664 33.3637 41.5664C33.0579 41.5664 32.8109 41.8139 32.8109 42.1204C32.8109 44.7538 30.6734 46.8923 28.0457 46.8923H12.8362C10.2085 46.8923 8.07095 44.7502 8.07095 42.1204C8.07095 41.8139 7.82403 41.5664 7.51814 41.5664C7.21225 41.5664 6.96533 41.8139 6.96533 42.1204C6.96533 45.3596 9.60038 48.0004 12.8362 48.0004Z" fill="#333750"/>
<path d="M18.1211 42.8581C18.1211 41.5765 19.1641 40.5312 20.4429 40.5312C21.7217 40.5312 22.7647 41.5765 22.7647 42.8581C22.7647 44.1397 21.7217 45.185 20.4429 45.185C19.1604 45.185 18.1211 44.1397 18.1211 42.8581ZM19.2267 42.8581C19.2267 43.5303 19.7721 44.077 20.4429 44.077C21.1136 44.077 21.6591 43.5303 21.6591 42.8581C21.6591 42.1859 21.1136 41.6393 20.4429 41.6393C19.7721 41.6393 19.2267 42.1859 19.2267 42.8581Z" fill="#5F82A6"/>
<path d="M30.1464 39.4017H10.7391C8.66059 39.4017 6.969 37.7064 6.969 35.6233V34.7701C6.969 34.4635 7.21592 34.2161 7.52181 34.2161C7.82769 34.2161 8.07462 34.4635 8.07462 34.7701V35.6233C8.07462 37.0969 9.27237 38.2936 10.7391 38.2936H30.1464C31.6169 38.2936 32.8109 37.0933 32.8109 35.6233V3.77839C32.8109 2.3084 31.6132 1.10803 30.1464 1.10803H10.7391C9.26868 1.10803 8.07462 2.3084 8.07462 3.77839V11.3315C8.07462 11.638 7.82769 11.8855 7.52181 11.8855C7.21592 11.8855 6.969 11.638 6.969 11.3315V3.77839C6.96531 1.69529 8.65691 0 10.7391 0H30.1464C32.2249 0 33.9165 1.69529 33.9165 3.77839V35.6196C33.9165 37.7064 32.2249 39.4017 30.1464 39.4017Z" fill="#5F82A6"/>
<path d="M15.2503 18.4479C14.9444 18.4479 14.6975 18.2004 14.6975 17.8939V16.7415C14.6975 16.435 14.9444 16.1875 15.2503 16.1875C15.5562 16.1875 15.8031 16.435 15.8031 16.7415V17.8939C15.8031 18.2004 15.5562 18.4479 15.2503 18.4479Z" fill="#5F82A6"/>
<path d="M15.2503 26.444C14.9444 26.444 14.6975 26.1965 14.6975 25.89V24.7376C14.6975 24.4311 14.9444 24.1836 15.2503 24.1836C15.5562 24.1836 15.8031 24.4311 15.8031 24.7376V25.89C15.8031 26.1965 15.5562 26.444 15.2503 26.444Z" fill="#5F82A6"/>
<path d="M15.2502 21.735C13.8866 21.735 12.7773 20.7489 12.7773 19.5374C12.7773 18.326 13.8866 17.3398 15.2502 17.3398C16.6138 17.3398 17.7231 18.326 17.7231 19.5374C17.7231 19.844 17.4762 20.0915 17.1703 20.0915C16.8644 20.0915 16.6175 19.844 16.6175 19.5374C16.6175 18.9354 16.0021 18.4479 15.2502 18.4479C14.4984 18.4479 13.883 18.9354 13.883 19.5374C13.883 20.1395 14.4984 20.627 15.2502 20.627C15.5561 20.627 15.803 20.8745 15.803 21.181C15.803 21.4876 15.5561 21.735 15.2502 21.735Z" fill="#333750"/>
<path d="M15.2502 25.0202C13.8866 25.0202 12.7773 24.034 12.7773 22.8226C12.7773 22.516 13.0243 22.2686 13.3302 22.2686C13.636 22.2686 13.883 22.516 13.883 22.8226C13.883 23.4246 14.4984 23.9122 15.2502 23.9122C16.0021 23.9122 16.6175 23.4246 16.6175 22.8226C16.6175 22.2206 16.0021 21.733 15.2502 21.733C14.9444 21.733 14.6974 21.4856 14.6974 21.179C14.6974 20.8725 14.9444 20.625 15.2502 20.625C16.6138 20.625 17.7231 21.6111 17.7231 22.8226C17.7231 24.034 16.6175 25.0202 15.2502 25.0202Z" fill="#333750"/>
<path d="M25.6282 32.5653H4.55145C2.0417 32.5653 0 30.5191 0 28.0039V17.9208C0 15.4055 2.0417 13.3594 4.55145 13.3594H25.6282C28.1379 13.3594 30.1796 15.4055 30.1796 17.9208V28.0039C30.1796 30.5191 28.1379 32.5653 25.6282 32.5653ZM4.55145 14.4674C2.65348 14.4674 1.10562 16.015 1.10562 17.9208V28.0039C1.10562 29.9097 2.65348 31.4573 4.55145 31.4573H25.6282C27.5298 31.4573 29.074 29.9097 29.074 28.0039V17.9208C29.074 16.015 27.5298 14.4674 25.6282 14.4674H4.55145Z" fill="#5F82A6"/>
<path d="M15.3385 30.0869L0.534282 18.4895C0.294732 18.3011 0.250508 17.954 0.438462 17.7102C0.626417 17.4664 0.972843 17.4258 1.21608 17.6142L15.3422 28.6797L29.2913 17.7545C29.5309 17.5662 29.8773 17.6068 30.069 17.8505C30.2569 18.0906 30.2127 18.4415 29.9731 18.6299L15.3385 30.0869Z" fill="#5F82A6"/>
</g>
<defs>
<clipPath id="clip0">
<rect width="38" height="48" fill="white"/>
</clipPath>
</defs>
</svg>
