<?xml version="1.0" encoding="utf-8"?>
<!-- Generator: Adobe Illustrator 25.2.1, SVG Export Plug-In . SVG Version: 6.00 Build 0)  -->
<svg version="1.1" id="Camada_1" xmlns="http://www.w3.org/2000/svg" xmlns:xlink="http://www.w3.org/1999/xlink" x="0px" y="0px"
	 viewBox="0 0 958 562.22" style="enable-background:new 0 0 958 562.22;" xml:space="preserve">
<style type="text/css">
	.st0{fill-rule:evenodd;clip-rule:evenodd;fill:#323751;}
	.st1{fill-rule:evenodd;clip-rule:evenodd;fill:#5F82A6;}
</style>
<path class="st0" d="M957-1.5H0v563.72l305.55-384.25c45.79-57.59,129.47-67.05,186.91-21.14l461.87,369.24
	c0.9,0.72,1.8,1.46,2.68,2.2V-1.5z"/>
<path class="st1" d="M440.75,0L591.1,119.87c8.49,6.77,20.86,5.37,27.63-3.12c6.77-8.49,5.37-20.86-3.12-27.63L503.81,0h-1.6
	l112.77,89.91c8.06,6.42,9.38,18.16,2.96,26.22c-6.42,8.06-18.16,9.38-26.22,2.96L442.35,0H440.75z"/>
<path class="st1" d="M958,445.53L557.68,126.35c-9.94-7.92-24.41-6.29-32.33,3.64c-7.92,9.94-6.29,24.41,3.65,32.34l428.45,341.6
	c0.19,0.15,0.37,0.29,0.56,0.43V445.53z"/>
</svg>
