<svg width="24" height="25" viewBox="0 0 24 25" fill="none" xmlns="http://www.w3.org/2000/svg">
<path d="M23.9006 24.3235H0V0H23.9006V24.3235ZM1.0532 23.2518H22.8474V1.07168H1.0532V23.2518Z" fill="#333750"/>
<path d="M10.8829 21.0068H2.9032V12.8906H10.8829V21.0068ZM3.9564 19.9351H9.82974V13.9623H3.9564V19.9351Z" fill="#333750"/>
<path d="M8.21876 15.6016H5.5647V18.3022H8.21876V15.6016Z" fill="#333750"/>
<path d="M18.2878 6.26562H15.8444V8.75192H18.2878V6.26562Z" fill="#333750"/>
<path d="M5.56415 7.69531H3.12073V10.1816H5.56415V7.69531Z" fill="#333750"/>
<path d="M10.1113 7.69531H7.66785V10.1816H10.1113V7.69531Z" fill="#333750"/>
<path d="M16.0479 17.9688H13.6045V20.455H16.0479V17.9688Z" fill="#333750"/>
<path d="M20.9518 13.4258H18.5084V15.9121H20.9518V13.4258Z" fill="#333750"/>
<path d="M17.7363 13.4258H15.2928V15.9121H17.7363V13.4258Z" fill="#333750"/>
<path d="M14.5205 13.4258H13.2988V14.6689H14.5205V13.4258Z" fill="#333750"/>
<path d="M4.34244 3.98438H3.12073V5.22752H4.34244V3.98438Z" fill="#333750"/>
<path d="M7.11295 5.64062H5.89124V6.88377H7.11295V5.64062Z" fill="#333750"/>
<path d="M8.56632 3.98438H7.3446V5.22752H8.56632V3.98438Z" fill="#333750"/>
<path d="M10.1111 5.64062H8.8894V6.88377H10.1111V5.64062Z" fill="#333750"/>
<path d="M20.9525 16.3281H19.7308V17.5713H20.9525V16.3281Z" fill="#333750"/>
<path d="M21.0534 11.5729H13.0771V3.45312H21.0569V11.5729H21.0534ZM14.1303 10.5012H20.0037V4.5248H14.1303V10.5012Z" fill="#333750"/>
</svg>
